<?xml version="1.0" encoding="utf-8"?>
<!-- Generator: Adobe Illustrator 16.0.1, SVG Export Plug-In . SVG Version: 6.00 Build 0)  -->
<!DOCTYPE svg PUBLIC "-//W3C//DTD SVG 1.1//EN" "http://www.w3.org/Graphics/SVG/1.1/DTD/svg11.dtd">
<svg version="1.1" id="Layer_1" xmlns="http://www.w3.org/2000/svg" xmlns:xlink="http://www.w3.org/1999/xlink" x="0px" y="0px"
	 width="396px" height="432px" viewBox="0 0 396 432" enable-background="new 0 0 396 432" xml:space="preserve">
<g>
	<path fill="#FFFFFF" d="M244.656,424.222v8h151.032L294.206,2.414l-0.727-3.081H104.867L2.658,432.222l167.125-0.005l-16.816-7.642
		c-1.394-0.634-3.012-1.779-3.461-2.43c0.119-0.896,0.889-1.591,1.818-1.591h22.518l-10.352-7.272
		c-5.889-4.139-10.95-9.237-15.042-15.156c-6.95-10.053-10.624-21.834-10.624-34.07V336.73
		c20.746,12.743,50.713,13.826,60.166,13.826c21.639,0,49.9-4.621,65.472-17.5h13.276c9.052,0,16.416,7.364,16.416,16.416v29.166
		c0,9.052-7.364,16.416-16.416,16.416h-27.194l-1.183,1.82c-4.359,6.706-9.241,11.768-15.83,16.41l-10.315,7.27h22.44
		c1.01,0,1.832,0.822,1.832,1.834C246.488,423.399,245.666,424.222,244.656,424.222z M199.919,111.138
		c6.453,35.635,15.232,73.078,26.185,111.652c-6.784-1.343-17.733-3.124-28.115-3.124c-9.564,0-18.23,1.738-23.956,3.248
		C184.571,185.12,193.251,147.632,199.919,111.138z M197.99,330.889c-29.575,0-60.166-9.413-60.166-25.166
		c0-15.544,31.23-25.166,60.166-25.166s60.167,9.622,60.167,25.166C258.156,323.081,222.973,330.889,197.99,330.889z"/>
	<path fill="#FFFFFF" d="M197.99,284.223c-30.626,0-56.5,9.846-56.5,21.5c0,4.552,4.504,8.295,6.441,9.692l2.226,1.606l2.299-1.499
		c11.342-7.393,27.938-11.633,45.534-11.633c17.598,0,34.195,4.241,45.537,11.635l2.302,1.501l2.227-1.61
		c1.935-1.398,6.434-5.144,6.434-9.692C254.488,294.068,228.615,284.223,197.99,284.223z"/>
	<path fill="#FFFFFF" d="M283.656,378.639v-29.166c0-3.813-3.104-6.916-6.918-6.916h-18.582v21.499
		c0,5.715-0.77,11.222-2.288,16.368l-1.514,5.132h22.384C280.553,385.556,283.656,382.453,283.656,378.639z"/>
</g>
</svg>
