<?xml version="1.0" encoding="utf-8"?>
<!-- Generator: Adobe Illustrator 16.0.2, SVG Export Plug-In . SVG Version: 6.00 Build 0)  -->
<!DOCTYPE svg PUBLIC "-//W3C//DTD SVG 1.1//EN" "http://www.w3.org/Graphics/SVG/1.1/DTD/svg11.dtd">
<svg version="1.1" id="Layer_1" xmlns="http://www.w3.org/2000/svg" xmlns:xlink="http://www.w3.org/1999/xlink" x="0px" y="0px"
	 width="797.331px" height="1055.999px" viewBox="0 0 797.331 1055.999" enable-background="new 0 0 797.331 1055.999"
	 xml:space="preserve">
<g id="Layer_1_1_" display="none">
</g>
<g>
	<path fill="#2C1C0D" d="M404.125,657.292c-2.929-1.611-6.481-2.43-10.556-2.43c-4.076,0-7.628,0.817-10.557,2.431
		c-2.895,1.595-5.077,3.777-6.67,6.67c-1.613,2.93-2.431,6.481-2.431,10.558v27.722c0,4.005,0.821,7.542,2.44,10.513
		c1.594,2.929,3.772,5.125,6.661,6.715c2.929,1.614,6.48,2.432,10.558,2.432c4.077,0,7.628-0.818,10.557-2.432
		c2.889-1.59,5.067-3.786,6.662-6.714c1.619-2.975,2.44-6.512,2.44-10.514V674.52c0-4.073-0.818-7.626-2.432-10.558
		C409.203,661.07,407.021,658.887,404.125,657.292z"/>
	<path fill="#2C1C0D" d="M765.157,228.237c-20.247-44.778-49.169-84.935-85.963-119.354c-36.586-34.224-79.143-61.076-126.487-79.81
		C503.852,9.743,452.006-0.058,398.61-0.058S293.369,9.743,244.514,29.073c-47.345,18.733-89.901,45.585-126.487,79.81
		c-36.795,34.42-65.717,74.576-85.963,119.354c-21.068,46.596-31.75,96.099-31.75,147.135v305.591
		c0,51.036,10.682,100.54,31.75,147.136c20.246,44.777,49.168,84.935,85.963,119.354c36.586,34.225,79.142,61.076,126.487,79.811
		c48.856,19.33,100.702,29.131,154.097,29.131c53.396,0,105.24-9.801,154.097-29.131c47.346-18.734,89.902-45.586,126.487-79.811
		c36.794-34.419,65.716-74.575,85.963-119.354c21.067-46.595,31.75-96.098,31.75-147.136V375.372
		C796.907,324.334,786.225,274.832,765.157,228.237z M708.907,680.962c0,158.49-139.198,287.431-310.297,287.431
		c-171.098,0-310.297-128.94-310.297-287.431V375.372c0-158.489,139.199-287.43,310.297-287.43
		c171.099,0,310.297,128.94,310.297,287.43V680.962z"/>
	<path fill="#2C1C0D" d="M332.32,658.542c-2.139-1.27-4.461-1.888-7.097-1.888h-22.407v29.544c1.207-0.88,2.616-1.339,4.125-1.339
		h18.282c2.639,0,4.96-0.617,7.097-1.888c2.184-1.297,3.877-2.99,5.177-5.178c1.271-2.139,1.888-4.461,1.888-7.097
		c0-2.626-0.614-4.922-1.876-7.017C336.21,661.526,334.512,659.844,332.32,658.542z"/>
	<path fill="#2C1C0D" d="M399.006,104.331c-78.326,0-151.964,30.502-207.35,85.887c-55.385,55.385-85.887,129.023-85.887,207.35
		v262.077c0,78.326,30.502,151.965,85.887,207.35c55.386,55.386,129.024,85.888,207.35,85.888s151.964-30.502,207.349-85.888
		c55.386-55.385,85.888-129.023,85.888-207.35V397.567c0-78.327-30.502-151.965-85.888-207.35
		C550.971,134.833,477.332,104.331,399.006,104.331z M252.216,696.569c1.918,0,3.631,0.749,4.955,2.166
		c1.253,1.347,1.913,3.054,1.913,4.94c0,1.867-0.695,3.548-2.009,4.861c-1.311,1.312-2.992,2.007-4.858,2.007h-22.068l-7.556,20.429
		c-0.683,1.705-1.885,3.027-3.478,3.824c-1.679,0.839-3.578,0.931-5.38,0.259c-1.855-0.608-3.286-1.925-4.041-3.725
		c-0.72-1.705-0.738-3.542-0.047-5.308l30.062-81.063c1.196-2.74,3.578-4.312,6.533-4.312c2.951,0,5.332,1.569,6.531,4.307
		l0.085,0.21l30.111,80.894c0.701,1.76,0.646,3.67-0.194,5.439c-0.801,1.69-2.201,2.939-3.959,3.535
		c-0.779,0.312-1.59,0.47-2.414,0.47h0c-0.985,0-1.959-0.226-2.896-0.67c-1.672-0.79-2.923-2.128-3.616-3.866l-23.652-63.313
		l-10.833,28.915H252.216z M289.099,860.785c3.433,3.433,8.195,5.102,14.557,5.102c3.008,0,5.808-0.636,8.56-1.943
		c2.718-1.293,4.944-3.084,6.805-5.475c1.077-1.436,2.668-2.367,4.56-2.639c1.92-0.278,3.785,0.243,5.349,1.454
		c1.479,1.11,2.421,2.812,2.607,4.752c0.179,1.905-0.375,3.672-1.601,5.125c-3.151,4.026-7.067,7.182-11.643,9.378
		c-4.588,2.204-9.512,3.321-14.636,3.321c-10.379,0-18.667-3.027-24.636-8.998c-5.97-5.969-8.998-14.257-8.998-24.635v-28.558
		c0-10.376,3.027-18.665,8.998-24.636c5.971-5.971,14.26-8.998,24.635-8.998c5.132,0,10.066,1.143,14.665,3.396
		c4.566,2.238,8.473,5.409,11.616,9.426c1.23,1.46,1.783,3.211,1.598,5.074c-0.183,1.819-1.021,3.426-2.426,4.651l-0.41,0.313
		c-1.521,1.015-3.319,1.428-5.114,1.171c-1.799-0.256-3.336-1.077-4.447-2.375l-0.118-0.145c-1.866-2.399-4.104-4.216-6.843-5.554
		c-2.738-1.334-5.526-1.983-8.521-1.983c-6.363,0-11.125,1.669-14.557,5.102c-3.433,3.433-5.102,8.194-5.102,14.558v28.558
		C283.998,852.589,285.667,857.351,289.099,860.785z M352.82,725.908c0.863,1.731,1.027,3.571,0.473,5.322
		c-0.523,1.656-1.562,3.01-3.002,3.914l-0.336,0.189c-1.057,0.527-2.153,0.796-3.26,0.796h0c-0.698,0-1.393-0.108-2.065-0.321
		c-1.736-0.548-3.128-1.691-4.024-3.308l-18.579-33.667h-15.084c-1.517,0-2.925-0.473-4.125-1.377v31.67
		c0,1.863-0.693,3.543-2.005,4.857c-1.321,1.317-3.042,2.011-4.982,2.011c-1.811,0-3.477-0.661-4.818-1.911
		c-1.419-1.324-2.168-3.038-2.168-4.957v-79.46c0-1.868,0.716-3.569,2.07-4.922c1.349-1.35,3.051-2.065,4.917-2.065h29.395
		c5.178,0,9.954,1.3,14.197,3.862c4.167,2.521,7.557,5.91,10.077,10.076c2.563,4.245,3.863,8.981,3.863,14.079
		c0,4.351-0.966,8.49-2.871,12.303c-1.88,3.761-4.466,6.997-7.684,9.618c-1.915,1.559-4.005,2.828-6.249,3.8L352.82,725.908z
		 M407.819,874.885c-0.801,1.69-2.201,2.939-3.959,3.535c-0.779,0.312-1.59,0.47-2.414,0.47h0c-0.985,0-1.959-0.226-2.896-0.67
		c-1.672-0.79-2.923-2.128-3.616-3.866l-23.652-63.313l-10.833,28.915h16.813c1.918,0,3.631,0.749,4.955,2.166
		c1.253,1.347,1.913,3.054,1.913,4.94c0,1.867-0.695,3.548-2.009,4.861c-1.311,1.312-2.992,2.007-4.858,2.007h-22.068l-7.556,20.429
		c-0.683,1.705-1.885,3.027-3.478,3.824c-1.678,0.839-3.579,0.931-5.38,0.259c-1.855-0.608-3.286-1.925-4.041-3.725
		c-0.72-1.705-0.738-3.542-0.047-5.308l30.062-81.063c1.196-2.74,3.578-4.312,6.533-4.312c2.951,0,5.332,1.569,6.531,4.307
		l0.085,0.21l30.111,80.894C408.714,871.206,408.659,873.116,407.819,874.885z M393.569,735.875c-6.634,0-12.537-1.417-17.543-4.211
		c-5.065-2.829-9.063-6.85-11.886-11.952c-2.79-5.038-4.204-10.917-4.204-17.471V674.52c0-6.638,1.417-12.541,4.212-17.544
		c2.821-5.054,6.817-9.05,11.877-11.877c5.005-2.795,10.908-4.212,17.544-4.212s12.539,1.417,17.543,4.212
		c5.058,2.825,9.054,6.821,11.878,11.878c2.795,5.006,4.212,10.908,4.212,17.543v27.722c0,6.551-1.415,12.429-4.204,17.471
		c-2.825,5.104-6.824,9.125-11.886,11.951C406.106,734.458,400.204,735.875,393.569,735.875z M469.047,797.973
		c-1.353,1.354-3.054,2.068-4.919,2.068H427.86v24.143h29.577c1.887,0,3.593,0.659,4.935,1.906c1.425,1.334,2.172,3.087,2.172,5.081
		c0,1.863-0.714,3.563-2.064,4.917c-1.355,1.355-3.098,2.07-5.042,2.07H427.86v34.236c0,1.863-0.693,3.543-2.005,4.857
		c-1.321,1.317-3.042,2.011-4.982,2.011c-1.811,0-3.477-0.661-4.818-1.911c-1.419-1.324-2.168-3.038-2.168-4.957v-79.341
		c0-1.868,0.716-3.569,2.07-4.922c1.349-1.35,3.051-2.065,4.917-2.065h43.255c1.865,0,3.566,0.715,4.919,2.068
		c1.353,1.35,2.068,3.052,2.068,4.919C471.115,794.919,470.4,796.621,469.047,797.973z M468.187,705.77l-0.063-0.108l-18.099-31.63
		v54.976c0,1.863-0.693,3.543-2.006,4.857c-1.319,1.317-3.04,2.011-4.981,2.011c-1.811,0-3.477-0.66-4.818-1.91
		c-1.421-1.327-2.169-3.04-2.169-4.958v-81.133c0-3.141,1.782-5.598,4.889-6.741l0.311-0.1c0.673-0.188,1.346-0.282,1.999-0.282
		c2.437,0,4.519,1.257,5.864,3.538l25.118,43.932l25.155-43.811c0.79-1.508,2.059-2.604,3.677-3.176
		c1.452-0.514,2.927-0.58,4.281-0.194l0.288,0.094c3.104,1.146,4.885,3.602,4.885,6.74v81.133c0,1.92-0.749,3.634-2.167,4.956
		c-1.344,1.252-3.051,1.912-4.939,1.912c-1.865,0-3.546-0.694-4.859-2.009c-1.313-1.31-2.008-2.991-2.008-4.859V673.97
		l-18.15,31.574c-1.166,2.345-3.402,3.685-6.169,3.685C471.701,709.229,469.558,708,468.187,705.77z M518.852,824.184
		c1.809,0,3.474,0.659,4.815,1.906c1.424,1.334,2.172,3.087,2.172,5.081c0,1.863-0.714,3.563-2.064,4.917
		c-1.355,1.355-3.057,2.07-4.923,2.07h-28.381v25.576h34.953c1.94,0,3.662,0.693,4.977,2.006c1.317,1.319,2.011,3.041,2.011,4.981
		c0,1.813-0.661,3.479-1.912,4.819c-1.323,1.418-3.078,2.168-5.075,2.168h-41.94c-1.866,0-3.567-0.715-4.92-2.068
		c-1.353-1.352-2.067-3.053-2.067-4.919v-77.668c0-1.866,0.715-3.567,2.067-4.919c1.353-1.354,3.054-2.068,4.92-2.068h41.94
		c1.997,0,3.752,0.75,5.075,2.168c1.251,1.341,1.912,3.007,1.912,4.819c0,1.81-0.66,3.476-1.91,4.817
		c-1.325,1.42-3.08,2.17-5.077,2.17h-34.953v24.143H518.852z M591.65,731.498c-0.801,1.69-2.201,2.938-3.959,3.535
		c-0.779,0.312-1.591,0.47-2.415,0.47c-0.985,0-1.96-0.226-2.897-0.67c-1.672-0.791-2.923-2.128-3.615-3.866l-23.652-63.313
		l-10.833,28.915h16.813c1.919,0,3.633,0.75,4.956,2.168c1.252,1.344,1.912,3.051,1.912,4.938c0,1.867-0.695,3.549-2.011,4.862
		c-1.309,1.311-2.99,2.006-4.857,2.006h-22.068l-7.556,20.431c-0.683,1.704-1.886,3.025-3.478,3.822
		c-1.679,0.84-3.577,0.932-5.38,0.259c-1.855-0.607-3.286-1.925-4.041-3.725c-0.721-1.705-0.738-3.542-0.048-5.307l30.063-81.066
		c1.197-2.738,3.578-4.31,6.532-4.31c2.95,0,5.331,1.569,6.531,4.306l0.086,0.211l30.111,80.894
		C592.546,727.818,592.489,729.728,591.65,731.498z M445.989,595.553v-8c1.01,0,1.832-0.822,1.832-1.833
		c0-1.012-0.822-1.834-1.832-1.834h-22.44l10.315-7.27c6.589-4.643,11.471-9.704,15.83-16.41l1.183-1.82h27.194
		c9.052,0,16.416-7.364,16.416-16.416v-29.166c0-9.052-7.364-16.416-16.416-16.416h-13.276c-15.572,12.879-43.833,17.5-65.472,17.5
		c-9.453,0-39.42-1.083-60.166-13.826v27.325c0,12.236,3.674,24.018,10.624,34.07c4.092,5.919,9.153,11.018,15.042,15.156
		l10.352,7.272h-22.518c-0.929,0-1.699,0.694-1.818,1.591c0.45,0.65,2.067,1.796,3.461,2.43l16.816,7.642l-167.125,0.005
		L306.2,162.665h188.612l0.727,3.081l101.482,429.808H445.989z M455.688,548.887l1.514-5.132c1.519-5.146,2.288-10.653,2.288-16.368
		v-21.499h18.582c3.814,0,6.918,3.103,6.918,6.916v29.166c0,3.814-3.104,6.917-6.918,6.917H455.688z"/>
	<path fill="#2C1C0D" d="M399.323,443.888c-28.936,0-60.166,9.622-60.166,25.166c0,15.753,30.591,25.166,60.166,25.166
		c24.983,0,60.167-7.808,60.167-25.166C459.489,453.51,428.258,443.888,399.323,443.888z M449.388,478.747l-2.227,1.61l-2.302-1.501
		c-11.342-7.394-27.939-11.635-45.537-11.635c-17.595,0-34.191,4.24-45.534,11.633l-2.299,1.499l-2.226-1.606
		c-1.937-1.397-6.441-5.141-6.441-9.692c0-11.654,25.874-21.5,56.5-21.5c30.625,0,56.499,9.846,56.499,21.5
		C455.821,473.603,451.322,477.348,449.388,478.747z"/>
	<path fill="#2C1C0D" d="M427.438,386.122c-10.953-38.574-19.732-76.017-26.185-111.652c-6.668,36.494-15.349,73.981-25.886,111.776
		c5.726-1.51,14.392-3.248,23.956-3.248C409.705,382.998,420.654,384.778,427.438,386.122z"/>
</g>
</svg>
