<?xml version="1.0" encoding="utf-8"?>
<!-- Generator: Adobe Illustrator 16.0.2, SVG Export Plug-In . SVG Version: 6.00 Build 0)  -->
<!DOCTYPE svg PUBLIC "-//W3C//DTD SVG 1.1//EN" "http://www.w3.org/Graphics/SVG/1.1/DTD/svg11.dtd">
<svg version="1.1" id="Layer_1" xmlns="http://www.w3.org/2000/svg" xmlns:xlink="http://www.w3.org/1999/xlink" x="0px" y="0px"
	 width="382.921px" height="586.609px" viewBox="0 0 382.921 586.609" enable-background="new 0 0 382.921 586.609"
	 xml:space="preserve" fill="#fff">
<g id="Layer_1_1_" display="none">
</g>
<g>
	<path d="M271.944,537.026V507.86c0-1.633-1.285-2.916-2.918-2.916h-14.582v17.499c0,6.066-0.816,11.958-2.451,17.5h17.033
		C270.659,539.943,271.944,538.659,271.944,537.026z"/>
	<path d="M282.601,161.721H100.32L0,586.609h126.871h1.084h8.082h6.875h0.699c0,0-5.834-2.608-5.834-5.833s2.609-5.834,5.834-5.834
		h9.867c-6.252-4.393-11.688-9.869-16.033-16.154c-7.142-10.33-11.334-22.847-11.334-36.345v-35.116
		c15.759,13.334,43.428,17.617,64.166,17.617c24.062,0,50.758-5.684,63.991-17.5c0.059,0,0.117-0.059,0.176-0.117v0.117h14.582
		c11.258,0,20.416,9.158,20.416,20.416v29.166c0,11.258-9.158,20.416-20.416,20.416h-21.989h-1.83h-1.204
		c-4.777,7.35-10.039,12.68-16.879,17.5h9.82c3.225,0,5.832,2.609,5.832,5.834s-2.607,5.833-5.832,5.833h1.344h7.875h8.992h1.882
		h125.885L282.601,161.721z M160.698,386.518c13.268-46.714,23.578-92.381,30.927-137.003h1.225
		c6.938,43.334,17.349,89.002,31.234,137.003c0,0-17.796-4.464-33.807-4.464s-29.579,5.167-29.579,5.167V386.518z M190.277,493.276
		c-31.455,0-64.166-10.258-64.166-29.166c0-18.945,33.058-29.166,64.166-29.166c31.109,0,64.167,10.221,64.167,29.166
		C254.444,484.929,216.772,493.276,190.277,493.276z"/>
	<path d="M190.277,446.61c-32.049,0-52.5,10.363-52.5,17.5c0,2.363,2.858,5.061,4.782,6.449
		c12.03-7.842,29.139-12.282,47.718-12.282c18.58,0,35.69,4.44,47.721,12.284c1.926-1.393,4.777-4.084,4.777-6.451
		C242.776,456.974,222.326,446.61,190.277,446.61z"/>
</g>
</svg>
